PathFileType	4	(X/Y/Z)	/Users/visionmauri/Downloads/Videos/OAW01-top_Sports2D/OAW01-top_Sports2D_m_person00.trc
DataRate	CameraRate	NumFrames	NumMarkers	Units	OrigDataRate	OrigDataStartFrame	OrigNumFrames
26.0	26.0	10	22	m	26.0	254	2035
Frame#	Time	Hip			RHip			RKnee			RAnkle			RBigToe			RSmallToe			RHeel			LHip			LKnee			LAnkle			LBigToe			LSmallToe			LHeel			Neck			Head			Nose			RShoulder			RElbow			RWrist			LShoulder			LElbow			LWrist			
		X1	Y1	Z1	X2	Y2	Z2	X3	Y3	Z3	X4	Y4	Z4	X5	Y5	Z5	X6	Y6	Z6	X7	Y7	Z7	X8	Y8	Z8	X9	Y9	Z9	X10	Y10	Z10	X11	Y11	Z11	X12	Y12	Z12	X13	Y13	Z13	X14	Y14	Z14	X15	Y15	Z15	X16	Y16	Z16	X17	Y17	Z17	X18	Y18	Z18	X19	Y19	Z19	X20	Y20	Z20	X21	Y21	Z21	X22	Y22	Z22
254	9.774033734210727	1.5802246844338377	0.9895751174219589	0.0301	1.5496153158452346	0.9925528962029797	0.0301	1.5315355227540992	0.8398891454493655	0.129	1.5153905990874237	0.7249796811810845	0.023	1.517615282084362	0.6604829431682198	0.2179	1.5011939874177818	0.6706934906213053	0.1804	1.509183530256176	0.7112307339350111	-0.0119	1.6111957652620446	0.9813843148041761	0.0301	1.5833413162264083	0.8358054120314602	0.129	1.5653794883208352	0.7486014378106219	0.023	1.5380794289966322	0.6815711643685542	0.2179	1.5578743564418418	0.6856589898682799	0.1804	1.5654580667800553	0.7406774875081529	-0.0119	1.6184720903506273	1.1833328610023903	0.0008	1.6404349034729668	1.264787033765072	0.0655	1.6266389181295653	1.1882270572286942	0.1076	1.5575667522318206	1.1828871879237068	-0.01275	1.5169597316856795	1.070077836237847	0.0702	1.4954840572579053	0.9795500122739031	0.1076	1.6758944552620374	1.1589418696681364	-0.01275	1.670948591598599	1.0412766416490922	0.0702	1.658231853439419	0.9495451560453428	0.1076
255	9.81251418198321	1.5796659276969232	0.9907874627465391	0.0301	1.5488428625776502	0.9915370100186415	0.0301	1.5310446097793162	0.8394178936930954	0.129	1.515384629103254	0.725754457002875	0.023	1.5177399970062655	0.6608022128770711	0.2179	1.5009492853960777	0.6709032808968743	0.1804	1.5092725586252738	0.7113835719414161	-0.0119	1.611111334125418	0.9822732120002703	0.0301	1.5844978796199285	0.8352238112604159	0.129	1.5665916481374116	0.747107274529158	0.023	1.5433374109328366	0.6790479442140829	0.2179	1.5620396079269767	0.6830646646588123	0.1804	1.5656375135091656	0.738797227718731	-0.0119	1.6195014957504617	1.1839632612549331	0.0008	1.6404238425950497	1.2610180689669435	0.0655	1.6259307912103755	1.1807239054272352	0.1076	1.5581965414944765	1.1835933123118492	-0.01275	1.5162254918930849	1.0696987161833444	0.0702	1.4951174669761231	0.9783096509361099	0.1076	1.6760960316766391	1.1597768349181992	-0.01275	1.6697752974615891	1.0420174551323849	0.0702	1.6576214962114542	0.9492434175813377	0.1076
256	9.850994629755693	1.5805745637547208	0.9924170017964604	0.0301	1.5495459664010287	0.9928112705491049	0.0301	1.531242350403076	0.8387204598651875	0.129	1.5153666987601728	0.7258121118300663	0.023	1.5185391849416203	0.6609801107246858	0.2179	1.5001126058472172	0.6710311686435138	0.1804	1.5103930830732073	0.7113275565879081	-0.0119	1.6122748485064526	0.9855287210496553	0.0301	1.5865485688574466	0.8342960308247447	0.129	1.5689109677668185	0.7425117431088663	0.023	1.5493408722025355	0.6735567148856819	0.2179	1.5683831683737397	0.6780995876910756	0.1804	1.5665505664700425	0.7348594193269679	-0.0119	1.6203339777843901	1.1795605724899934	0.0008	1.642718287542062	1.2525859957047658	0.0655	1.6279120179655815	1.1669764967782188	0.1076	1.5593208241993575	1.1831074375829105	-0.01275	1.5160386338826464	1.0685747255229754	0.0702	1.495007844136355	0.977457421079612	0.1076	1.6760771555111735	1.1588664644648856	-0.01275	1.6682554380183903	1.04148444663158	0.0702	1.6570861620039303	0.9468801937855483	0.1076
257	9.889475077528177	1.582153603630724	0.9936656979975214	0.0301	1.5504373974117711	0.9943695904092921	0.0301	1.5311553295275213	0.8383065242593924	0.129	1.5149483871547336	0.7246060548046938	0.023	1.5182486723926747	0.6610919618783707	0.2179	1.4999071901620264	0.6708350180977426	0.1804	1.5117629588409407	0.7111770072213226	-0.0119	1.6143476243184292	0.9890617512241073	0.0301	1.5890085571383723	0.8351691905781367	0.129	1.5699604514304732	0.7348004463570852	0.023	1.5530417248940476	0.6670707701553071	0.2179	1.5729577446368723	0.6719534144739905	0.1804	1.5661797590608464	0.7255725531090305	-0.0119	1.6207197822522048	1.175975826308642	0.0008	1.6461328203904446	1.2462952033690682	0.0655	1.6316961368727678	1.1631502519357841	0.1076	1.5599410570349024	1.1811083794310255	-0.01275	1.5157424700798372	1.0662873923219136	0.0702	1.4951922061073002	0.976210388660735	0.1076	1.6762843734538189	1.156804460707696	-0.01275	1.667070796378854	1.0402594987380376	0.0702	1.6546998406623112	0.9473228735552073	0.1076
258	9.927955525300659	1.583582055476609	0.9933343887841769	0.0301	1.5511934896600557	0.9942954508364962	0.0301	1.5307957307891034	0.8374202670175662	0.129	1.514171190616156	0.7228308715916257	0.023	1.5168198020691472	0.6613820484099199	0.2179	1.4994372317979037	0.6708159154222609	0.1804	1.5124825780103577	0.7107117248595263	-0.0119	1.6157979207911823	0.9891507395327261	0.0301	1.591599334993149	0.8352939764349915	0.129	1.5702617884845245	0.7253588115122709	0.023	1.5546843671926918	0.6602669500603673	0.2179	1.5754605623386944	0.6650374903271185	0.1804	1.565503824825942	0.7136719525200955	-0.0119	1.6207153558509433	1.176233203285117	0.0008	1.6465279444723917	1.247946389548179	0.0655	1.6331587717464535	1.1723700486640314	0.1076	1.559917638959199	1.1784777204536843	-0.01275	1.515566733956379	1.063898683982364	0.0702	1.4961852136179483	0.974602164190274	0.1076	1.6768918537242248	1.1554738649765532	-0.01275	1.6668337312136319	1.0400440655172039	0.0702	1.6508377127724174	0.953429166916596	0.1076
259	9.966435973073143	1.5845430788419819	0.9909917989836065	0.0301	1.5525295255428486	0.9917322967230607	0.0301	1.5306222911016276	0.8351744862567753	0.129	1.5136834407714552	0.721421126349375	0.023	1.515858417483339	0.6615622217597376	0.2179	1.4979141187543594	0.6711587665394814	0.1804	1.5128104952467687	0.7097828286364365	-0.0119	1.6163390243816576	0.9856163588597247	0.0301	1.593871191849841	0.8312699023944208	0.129	1.5717940520974607	0.7149850098289794	0.023	1.5566593896727479	0.652825323074359	0.2179	1.57816501911839	0.6574752438666446	0.1804	1.5662959084980694	0.7025262948450022	-0.0119	1.6211097723009904	1.1772777343800227	0.0008	1.6436448951190015	1.2488427193500429	0.0655	1.6319904052086023	1.1778689587370277	0.1076	1.560054594786041	1.1756472752578753	-0.01275	1.5163557722224066	1.062327560613223	0.0702	1.498127174809473	0.9730585539654565	0.1076	1.67763128465806	1.1542434827838142	-0.01275	1.6672104877657818	1.0405859385077352	0.0702	1.6475944581563344	0.9586044246249547	0.1076
260	10.004916420845626	1.585373471726118	0.9882913266674456	0.0301	1.5539831271903524	0.9883838879684467	0.0301	1.5307473010555586	0.8321534377449584	0.129	1.5139019477132347	0.7207487894326067	0.023	1.5153269724678187	0.6614653867028792	0.2179	1.4967310757119674	0.6714103341678461	0.1804	1.5133208532441174	0.7088256873417116	-0.0119	1.617455237749457	0.9816083841079044	0.0301	1.595829300646689	0.8252727405633353	0.129	1.5749296507044368	0.7046578447089149	0.023	1.5604943648432819	0.6459315499444213	0.2179	1.5824331566597474	0.6505304262804622	0.1804	1.5687677927127466	0.6934289981070498	-0.0119	1.622314214427809	1.1771631626404122	0.0008	1.6418157395054915	1.245628806978074	0.0655	1.6317430359534462	1.1760750158220035	0.1076	1.5604461488498147	1.1727476216859074	-0.01275	1.5182458188975003	1.060827810437422	0.0702	1.5005674977486563	0.9709828137118692	0.1076	1.6784086313213993	1.1517230633751605	-0.01275	1.667314918364463	1.04069903998492	0.0702	1.6460932962842818	0.9600031806681639	0.1076
261	10.043396868618109	1.5864517944698795	0.986530696649597	0.0301	1.5544367002971051	0.9856264186711199	0.0301	1.5310085273893024	0.8299403107074159	0.129	1.5145390745361433	0.7207484989548781	0.023	1.5141011451363429	0.6614845662526092	0.2179	1.4969113077009006	0.6715101590549072	0.1804	1.5139220050112727	0.7082334460311113	-0.0119	1.6191711172581325	0.9782170535937645	0.0301	1.5975951382276574	0.82171881598443	0.129	1.5788878896601852	0.6970566148314702	0.023	1.5656708458052258	0.6409104456364623	0.2179	1.5874802741901695	0.6454586262693466	0.1804	1.5725760938526647	0.6874969326609476	-0.0119	1.623541297815977	1.1769941281511789	0.0008	1.6430476965619427	1.2487658530993953	0.0655	1.6328559410204029	1.181159700822242	0.1076	1.560750840439571	1.1704277711231064	-0.01275	1.5203150634471203	1.0585712967859073	0.0702	1.5030030601164945	0.9681880718685054	0.1076	1.6797752591748136	1.1488515345355548	-0.01275	1.6669364658714168	1.040150221857525	0.0702	1.6456380568598257	0.9634769093456812	0.1076
262	10.081877316390592	1.5882808084849094	0.9844888653790766	0.0301	1.5549293923174698	0.9822522041377326	0.0301	1.5319655130045515	0.8293114821131444	0.129	1.51506698597655	0.7209573697170472	0.023	1.5131945282105579	0.6615811210316224	0.2179	1.4976815819065017	0.6715700734818904	0.1804	1.514208572190728	0.7079400887368423	-0.0119	1.6204406268794622	0.9746679353874499	0.0301	1.5993175526650303	0.8210447778860741	0.129	1.582837422891271	0.694217646415053	0.023	1.5705564220339985	0.6370721373376999	0.2179	1.59185232123576	0.6417692844328154	0.1804	1.576796872409012	0.6841592327111264	-0.0119	1.6246492515649849	1.177203297964928	0.0008	1.6451930221692812	1.2573105070176402	0.0655	1.6332866788795302	1.191219284030566	0.1076	1.561663856240449	1.1685590873777447	-0.01275	1.5223564364334696	1.0561110502054945	0.0702	1.5056315977879513	0.966095588849532	0.1076	1.6819110433268245	1.1469335819228381	-0.01275	1.6672502506369062	1.0393721472154382	0.0702	1.6461313661221482	0.9691544628122083	0.1076
263	10.120357764163074	1.591411460537147	0.98153674482867	0.0301	1.5575567118519549	0.9785510654974179	0.0301	1.5341243890708467	0.8289773381947801	0.129	1.5153178435509342	0.7210343141267667	0.023	1.5143643498409476	0.6613351991809345	0.2179	1.4980536256513755	0.6715013064889287	0.1804	1.514157513371031	0.7078056602801741	-0.0119	1.6221624393928913	0.9719208202920555	0.0301	1.6010830815926291	0.8200942813169367	0.129	1.5858723605837584	0.6936024309890579	0.023	1.5734510342386567	0.633159575298716	0.2179	1.5947464612317763	0.6381688354002168	0.1804	1.5801107284529126	0.6807985858940372	-0.0119	1.62684606880434	1.1767832998160197	0.0008	1.6473980210474761	1.2574199305472824	0.0655	1.634179387905181	1.1893516233351586	0.1076	1.564096938131377	1.1662546449904867	-0.01275	1.5251918167571457	1.0544449125427682	0.0702	1.5090061447713152	0.9656068356826153	0.1076	1.6841919414878175	1.1452451002673742	-0.01275	1.6696776557732853	1.038635718585779	0.0702	1.6492944244446035	0.9709884384419291	0.1076
